<?xml version="1.0" standalone="no"?>
<!DOCTYPE svg PUBLIC "-//W3C//DTD SVG 20010904//EN"
 "http://www.w3.org/TR/2001/REC-SVG-20010904/DTD/svg10.dtd">
<svg version="1.0" xmlns="http://www.w3.org/2000/svg"
 width="1172.000000pt" height="1280.000000pt" viewBox="0 0 1172.000000 1280.000000"
 preserveAspectRatio="xMidYMid meet">
<metadata>
Created by potrace 1.15, written by Peter Selinger 2001-2017
</metadata>
<g transform="translate(0.000000,1280.000000) scale(0.100000,-0.100000)"
fill="#000000" stroke="none">
<path d="M4383 12789 c-54 -16 -139 -103 -178 -182 -70 -143 -65 70 -65 -2912
0 -1965 3 -2708 11 -2747 9 -40 21 -63 53 -94 44 -45 80 -58 184 -70 l62 -7 0
3012 c0 2861 -1 3011 -17 3010 -10 0 -32 -5 -50 -10z"/>
<path d="M520 12130 c-279 -36 -493 -257 -517 -531 -13 -152 50 -322 163 -438
l64 -65 0 -2493 0 -2493 -24 0 c-39 0 -109 -29 -140 -58 -63 -59 -66 -77 -66
-402 0 -173 4 -310 10 -332 14 -49 52 -93 104 -121 40 -21 52 -22 384 -25 188
-2 341 -6 338 -10 -2 -4 -9 -66 -15 -137 -33 -390 69 -785 303 -1174 49 -81
66 -121 75 -171 21 -113 90 -368 142 -522 87 -258 204 -522 374 -838 l35 -65
10 -285 c5 -157 10 -438 10 -625 l0 -341 -72 -17 c-178 -41 -324 -151 -396
-296 -36 -73 -37 -78 -37 -186 0 -109 1 -112 39 -190 67 -136 183 -230 351
-287 l70 -23 3385 -3 c3775 -3 3464 -9 3625 67 159 74 270 214 297 373 40 232
-141 467 -417 543 -38 11 -118 19 -222 22 l-163 6 0 346 c0 376 9 487 46 600
64 191 176 298 376 361 255 79 444 157 633 263 125 70 332 208 445 296 52 42
131 102 175 135 483 363 811 762 985 1201 96 242 143 556 121 802 -6 67 -11
128 -11 137 0 13 35 15 263 18 293 3 305 6 377 78 72 72 75 85 78 373 3 216 1
266 -13 306 -21 64 -74 123 -137 155 l-52 26 -3933 0 -3933 0 0 2445 c0 2320
1 2446 18 2451 53 17 104 42 164 81 188 123 289 359 244 573 -46 217 -196 379
-426 456 -53 18 -123 19 -1565 20 -830 1 -1535 -2 -1565 -6z"/>
<path d="M3712 10894 c-48 -33 -52 -58 -52 -294 0 -181 3 -228 16 -255 18 -39
66 -65 118 -65 l36 0 0 -53 c0 -75 24 -97 107 -97 91 0 104 15 116 126 5 49
11 201 13 337 l5 248 -35 35 -34 34 -134 0 c-105 0 -138 -3 -156 -16z"/>
<path d="M4190 6743 c0 -71 55 -187 135 -283 41 -50 172 -170 185 -170 4 0 4
15 2 34 -9 81 43 151 128 170 l51 12 -76 48 c-96 61 -173 136 -181 175 -6 30
-8 31 -64 31 -31 0 -85 3 -119 6 l-61 7 0 -30z"/>
<path d="M4642 6469 c-159 -79 -110 -320 68 -337 107 -10 194 69 195 177 0
138 -138 222 -263 160z"/>
<path d="M5105 6476 c-126 -40 -164 -98 -181 -273 l-7 -73 3337 0 3336 0 0 28
c0 43 -45 128 -93 175 -52 50 -134 96 -232 129 l-70 23 -3025 2 c-2422 1
-3033 -1 -3065 -11z"/>
</g>
</svg>
